/* XPM */
static char *_2d4aebbf6844acea538dd79f50a8157EQSn4fObDXeZSXcU[] = {
/* columns rows colors chars-per-pixel */
"64 64 164 2 ",
"   c None",
".  c #493F39",
"X  c #45433D",
"o  c #4B433D",
"O  c #55443C",
"+  c #58423A",
"@  c #61443C",
"#  c #74473D",
"$  c #3F4F4D",
"%  c #3E524E",
"&  c #375E5A",
"*  c #3C5956",
"=  c #30605F",
"-  c #38615E",
";  c #006C6B",
":  c #007473",
">  c #00797B",
",  c #0F7474",
"<  c #266768",
"1  c #286C6C",
"2  c #326563",
"3  c #464642",
"4  c #4A4641",
"5  c #464B46",
"6  c #4A4B45",
"7  c #434E4B",
"8  c #524B43",
"9  c #5B4B44",
"0  c #40514E",
"q  c #4D514D",
"w  c #59564F",
"e  c #4D5652",
"r  c #4C5E59",
"t  c #465A54",
"y  c #525755",
"u  c #555C54",
"i  c #575E59",
"p  c #655E54",
"a  c #47625C",
"s  c #666659",
"d  c #6D665B",
"f  c #756B5E",
"g  c #446764",
"h  c #5C6562",
"j  c #5E6A67",
"k  c #666E6B",
"l  c #696864",
"z  c #786A64",
"x  c #68736F",
"c  c #71726D",
"v  c #7C7773",
"b  c #7C7975",
"n  c #777B78",
"m  c #A94F3D",
"M  c #B8513C",
"N  c #C2523C",
"B  c #E6573C",
"V  c #EE5A3C",
"C  c #FF5F3D",
"Z  c #FF613E",
"A  c #837560",
"S  c #81817F",
"D  c #9B8D7B",
"F  c #A28D71",
"G  c #B59C7E",
"H  c #007E81",
"J  c #007E9E",
"K  c #008286",
"L  c #008C8C",
"P  c #00868A",
"I  c #00918F",
"U  c #008C92",
"Y  c #009293",
"T  c #00949B",
"R  c #0083A4",
"E  c #0087A9",
"W  c #0089AB",
"Q  c #0097A3",
"!  c #009AA5",
"~  c #00A0A6",
"^  c #00A2AB",
"/  c #00A8AE",
"(  c #00A7B1",
")  c #00ACB8",
"_  c #00B4BD",
"`  c #00A5CD",
"'  c #00A8CF",
"]  c #00B4C3",
"[  c #00BCC4",
"{  c #00BFCE",
"}  c #00ACD4",
"|  c #00B6E1",
" . c #00B8E3",
".. c #00BDE8",
"X. c #00C4CB",
"o. c #00C1C3",
"O. c #00C2D3",
"+. c #00C8D6",
"@. c #00CCDD",
"#. c #00D4DE",
"$. c #00CEE3",
"%. c #00C1ED",
"&. c #00D3E4",
"*. c #00D5EA",
"=. c #00DAED",
"-. c #00C5F2",
";. c #00C9F7",
":. c #00CDFC",
">. c #00DCF3",
",. c #00D5FF",
"<. c #00DCFF",
"1. c #00E2ED",
"2. c #00E9EE",
"3. c #00E2F2",
"4. c #00EDF4",
"5. c #00E5FF",
"6. c #00EBFF",
"7. c #00F3FF",
"8. c #00FAFF",
"9. c #838583",
"0. c #8C8B88",
"q. c #908E8D",
"w. c #949290",
"e. c #9D9A97",
"r. c #9B9996",
"t. c #A59582",
"y. c #A99985",
"u. c #A29F9C",
"i. c #A4A19E",
"p. c #A9A7A3",
"a. c #ABABAA",
"s. c #A8A7A5",
"d. c #B1AFAD",
"f. c #B6B4B4",
"g. c #BCBCBC",
"h. c #CEB18D",
"j. c #D1B38F",
"k. c #DEBF96",
"l. c #D3B590",
"z. c #D2BFA5",
"x. c #D7C2A8",
"c. c #F6D3A5",
"v. c #FAD6A7",
"b. c #FAD7A9",
"n. c #FBDBAF",
"m. c #E6D0B4",
"M. c #FCDFB9",
"N. c #FBDBB0",
"B. c #FDE2BF",
"V. c #BEBFC1",
"C. c #C5C3C2",
"Z. c #CAC8C7",
"A. c #CDCBCA",
"S. c #D2D0CF",
"D. c #D9D8D7",
"F. c #DBDBDA",
"G. c #D5D3D2",
"H. c #FDE5C5",
"J. c #E5E4E4",
"K. c #ECECEC",
"L. c #F0F0F0",
"P. c white",
"I. c #FDFDFD",
"U. c #FDFDFD",
/* pixels */
"                                                                                                                                ",
"                                                                                                                                ",
"                                                                                                                                ",
"                                                  W ' | -.;.,.,.,.;.-.| ' W                                                     ",
"                                            ' -.,.,.,.,.,.,.,.,.<.,.,.,.,.,.,.-.`                                               ",
"                                      R ..,.,.,.,.<.<.<.5.<.5.<.<.<.5.<.<.<.,.,.,.,.%.R                                         ",
"                                  J -.,.,.<.<.<.5.5.5.5.5.5.5.5.5.5.5.5.5.5.<.<.<.<.,.,.-.J                                     ",
"                                 .,.,.,.<.5.5.5.5.5.5.5.5.5.5.6.5.5.5.5.5.6.5.5.5.<.<.<.,.,. .                                  ",
"                            W :.,.,.<.<.5.5.5.5.5.6.5.5.6.5.6.6.6.6.5.5.5.6.5.5.5.5.5.<.<.<.,.:.W                               ",
"                          } ,.<.<.<.] T Q @.6.5.5.5.6.6.6.6.5.6.6.5.6.6.5.6.5.6.5.6.5.5.5.<.<.,.,.}                             ",
"                        | ,.,.<.>.< h r.0.5 ! 6.6.6.5.6.5.6.6.6.6.6.6.5.5.6.5.6.6.5.5.6.5.5.5.<.,.,.|                           ",
"                      ..,.<.<.5.> 9.K.L.L.F.q O.6.6.6.6.6.6.6.6.6.6.6.6.6.6.6.6.6.5.6.5.5.5.5.5.<.<.,...                        ",
"                    | ,.<.<.5.>.X J.L.L.L.L.i.P 6.6.6.6.6.6.7.6.6.6.6.6.6.6.6.6.6.6.5.6.5.6.5.5.5.<.<.,.|                       ",
"                  } ,.<.<.5.5.@.y L.L.L.L.L.f.> 6.6.6.6.6.6.6.6.6.6.6.6.6.7.6.6.6.6.6.6.5.6.6.5.5.5.<.<.,.}                     ",
"                E ,.,.<.5.5.5.>.3 J.L.L.L.L.0.T 6.7.6.7.6.7.7.6.7.6.6.7.6.7.6.6.6.6.6.6.6.5.6.5.5.5.5.<.<.,.E                   ",
"                :.,.<.5.5.5.6.5.K n K.L.L.L.k ^ 6.6.6.7.6.7.6.6.6.7.7.6.7.6.6.7.6.6.6.6.6.6.5.6.5.5.5.5.<.,.:.                  ",
"               .,.<.5.5.5.6.5.5.3.> q 9.L.L.f., 6.7.6.7.7.6.7.7.7.6.6.7.7.6.6.6.6.6.6.7.6.6.6.6.6.6.5.5.5.<.,. .                ",
"              ,.,.<.5.5.&.U H ) 6.6.@.& s.J.S U 7.6.7.6.7.7.6.7.7.7.7.6.6.7.7.7.7.7.6.6.6.6.6.6.6.5.6.5.5.<.,.,.J               ",
"            -.,.<.5.5.*.7 q.a.i T 6.6.#.2 X : 3.6.7.7.7.7.7.7.7.7.7.7.7.7.7.7.6.6.7.6.6.6.6.6.6.6.6.5.5.5.5.<.,.-.              ",
"          J ,.<.5.5.5.Q S L.L.D.3 6.7.6.6.6.7.7.7.7.7.7.7.6.7.7.7.7.7.7.6.7.7.6.7.6.7.6.7.6.6.6.6.5.6.6.5.5.5.<.,.E             ",
"          %.,.<.5.5.5.T q.L.L.J.X 6.6.7.7.7.7.7.7.7.7.7.7.7.7.7.7.7.7.7.7.7.7.7.7.7.6.7.6.6.6.6.6.6.6.5.5.5.5.<.,.%.            ",
"          ,.,.5.5.5.6.$.3 d.A.c K 6.7.6.7.6.6.7.7.7.7.7.7.7.8.7.7.7.7.7.7.7.7.7.7.6.7.6.7.6.7.6.6.5.5.6.5.6.5.<.,.,.            ",
"        ' ,.<.5.5.6.6.6.{ 1 & Y 3.7.6.7.6.7.7.7.7.7.7.8.7.8.7.8.7.8.7.8.7.7.7.7.7.7.7.6.6.7.6.6.6.6.6.6.6.5.5.5.<.,.'           ",
"        -.,.<.5.5.5.5.6.6.6.6.6.7.6.6.7.7.7.7.7.7.8.7.7.7.8.8.7.7.7.8.7.7.7.7.7.7.7.7.7.7.6.7.7.6.6.6.6.6.5.5.5.<.,.-.          ",
"        ,.,.<.5.5.6.6.5.6.6.7.+.@.7.7.7.7.7.7.7.8.7.8.7.8.8.8.7.8.8.8.7.8.7.7.7.7.7.7.7.7.6.7.6.6.6.6.5.6.5.6.5.5.,.,.          ",
"      W ,.<.5.5.5.6.6.6.6.6.: y y > 7.6.7.8.7.7.7.8.8.8.8.8.8.8.8.8.7.8.7.8.7.8.7.7.7.7.7.7.6.6.6.6.6.6.6.6.5.5.5.<.,.E         ",
"      ' <.<.5.5.5.5.6.6.6.@.e K.K.5 =.7.7.7.7.7.7.7.7.8.8.8.8.8.8.8.7.8.8.7.8.7.7.7.7.7.7.7.6.7.7.6.6.6.6.5.5.5.5.<.,.'         ",
"      | ,.<.5.5.6.6.5.6.6.&.5 J.F.3 1.7.7.7.7.8.8.8.8.8.8.8.8.8.8.8.8.8.8.8.8.7.8.7.7.7.7.6.7.6.7.6.6.6.6.6.6.5.5.<.,.|         ",
"      -.,.<.6.5.5.6.6.6.6.6.T 3 3 ~ 7.7.7.7.8.7.8.8.8.8.8.8.8.8.8.8.8.8.8.7.8.7.7.7.7.7.7.7.7.6.6.6.6.6.6.5.6.5.5.<.,.-.        ",
"      :.,.5.5.5.5.6.6.6.6.6.6.4.4.7.7.7.7.7.7.7.8.7.8.8.8.8.8.8.8.8.8.8.8.8.7.8.7.8.7.7.7.7.6.7.7.6.6.6.6.6.5.5.5.5.,.;.        ",
"      :.<.5.5.5.6.6.6.6.6.6.6.7.6.6.7.7.7.7.8.8.8.8.8.8.8.8.8.8.8.8.8.8.8.8.8.7.7.7.7.7.6.7.7.6.7.6.6.6.6.5.6.5.5.<.<.:.        ",
"      ,.,.<.5.5.5.6.5.6.6.7.7.6.7.7.7.7.7.7.7.8.7.8.8.8.8.8.8.8.8.8.8.8.8.8.8.8.7.7.7.7.7.7.6.7.6.7.6.6.6.6.5.5.5.5.,.,.        ",
"      ,.,.5.5.5.5.5.6.6.6.O.= > / #.7.7.7.8.8.7.8.8.8.8.8.8.8.8.8.8.8.8.8.8.8.8.7.7.7.7.7.7.7.6.7.7.6.6.6.5.6.5.5.5.,.:.        ",
"      ;.<.<.5.5.6.6.6.6.>.5 w.q.l O . t : X.6.8.8.8.8.8.8.8.8.8.8.8.8.8.8.8.7.8.8.7.7.7.7.7.7.6.6.6.6.6.6.6.5.5.5.<.<.;.        ",
"      -.,.<.5.5.5.6.6.6.3.% q.V.z M Z N + l 4 g T X.4.8.8.8.8.8.8.8.8.8.8.8.8.7.8.7.7.7.7.7.7.6.7.6.6.6.6.5.5.6.5.<.<.-.        ",
"      | <.<.5.5.5.6.6.6.6.@.3 V.9 B Z M d I.L.Z.u.c o g Y o.4.8.8.8.8.8.8.8.8.7.7.7.7.7.7.6.6.7.6.6.6.6.6.5.6.5.5.<.,.|         ",
"      ' ,.<.5.5.5.6.6.6.6.6.0 s.v @ C # e.I.I.U.U.I.U.S.p.c 4 a I [ 2.8.7.8.7.8.7.7.7.7.7.6.7.6.7.6.6.6.6.6.5.5.5.<.,.'         ",
"      E ,.<.5.5.6.5.6.5.&.% i g.z m C . D.L.U.U.U.U.I.U.I.I.U.S.p.v 4 r L _ 1.7.7.7.7.7.7.7.6.7.6.6.6.6.6.5.6.5.<.<.,.W         ",
"        ,.,.<.5.5.5.6.6.{ e V.V.o C B O L.L.L.L.L.L.L.U.I.I.I.I.I.I.I.D.a.b 4 u I o.3.7.6.7.7.6.7.6.6.6.5.5.5.5.5.,.,.          ",
"        -.<.<.5.6.5.6.5.5.$ s.f.O C m l L.L.L.L.L.L.L.L.L.L.L.U.I.I.I.I.I.I.s D t.f o r L _ 1.6.6.6.6.6.6.5.5.5.<.,.-.          ",
"        } ,.<.5.5.5.5.6.6.( 3 o + B @ e.L.L.L.L.L.L.L.K.L.L.L.L.L.L.L.I.I.U.4 m.H.H.H.z.y.f o a P _ >.6.6.5.5.<.<.,.'           ",
"          ,.,.<.5.5.6.5.6.6.3.^ ; 0 4 3 x u.Z.K.L.L.L.L.L.L.L.L.L.L.L.L.K.f.9 B.B.H.H.H.H.H.H.x.y.z 4 { 5.6.5.5.<.,.            ",
"          ..,.<.5.5.5.6.5.6.6.6.6.7.6.1.[ L - 3 k e.C.K.L.K.L.L.L.L.L.L.L.v A v.v.v.n.B.B.H.H.H.H.H.D T 5.5.5.<.,.%.            ",
"          R ,.<.5.5.5.6.6.5.6.6.6.6.6.7.6.6.7.3.[ U 2 3 j r.C.J.L.L.L.L.L.w G v.v.v.v.c.v.v.n.B.B.H.f ] 6.5.<.<.,.E             ",
"            -.,.<.5.5.5.5.6.6.6.6.6.6.7.7.7.6.7.7.7.7.4.[ T 2 o h w.z.J.L.3 k.v.v.v.v.v.v.v.v.v.v.c.X >.5.5.<.,.-.              ",
"            J ,.<.<.5.5.6.5.5.6.6.6.6.6.6.6.7.6.6.7.6.7.7.7.7.4.X.T 1 3 y 3 l.c.v.v.v.v.v.v.v.v.v.l.& 6.5.<.,.,.J               ",
"               .,.<.<.5.5.6.5.6.6.6.6.6.6.7.6.7.7.6.6.7.6.7.6.7.7.7.6.4.{ > * 4 d F l.c.v.v.v.v.v.F L 5.5.<.,. .                ",
"                :.<.<.5.5.5.6.5.6.6.6.6.6.6.6.6.6.6.7.6.7.6.7.7.6.7.6.7.6.6.6.3.[ P - X s F h.c.v.s ] 5.<.<.:.                  ",
"                E ,.,.<.5.5.5.6.6.5.6.6.6.6.6.6.7.7.6.6.6.6.6.6.6.6.4.6.6.6.6.6.6.6.6.>.] U 2 X u $ <.<.<.,.E                   ",
"                  } ,.<.<.5.5.5.5.6.6.6.5.>.=.=.*.&.&.&.&.&.#.&.#.&.&.&.#.&.&.&.&.&.*.*.=.=.>.*.{ >.<.<.,.}                     ",
"                     .,.<.<.5.5.5.6.6.=.$.&.$.&.&.#.&.&.&.&.&.&.&.&.#.&.&.&.&.&.$.&.$.$.$.$.&.$.*.<.<.,. .                      ",
"                      ..,.<.<.5.5.5.5.5.5.3.>.=.=.=.=.&.&.&.&.&.&.&.$.&.&.&.$.&.&.*.*.=.=.>.>.<.5.,.,. .                        ",
"                        | ,.,.<.5.5.5.5.5.5.5.6.6.5.6.5.6.6.6.5.5.6.6.5.5.6.5.6.5.6.5.5.5.5.5.<.,.,.|                           ",
"                          } ,.<.<.<.5.5.5.6.5.5.5.6.6.5.6.5.6.5.6.5.6.6.6.6.6.5.5.5.6.5.5.<.<.,.,.}                             ",
"                            R :.,.,.<.5.5.5.5.6.5.6.5.6.5.6.5.6.5.6.5.5.5.5.6.5.5.5.5.<.<.<.,.:.R                               ",
"                                | ,.,.,.<.5.5.5.5.5.5.5.5.5.6.5.5.5.6.5.5.5.5.5.5.<.<.<.,.,. .                                  ",
"                                  J -.,.,.<.<.<.5.<.5.5.5.5.5.5.5.5.5.5.5.5.<.<.<.,.,.,.%.J                                     ",
"                                      R ..,.,.,.,.<.<.<.<.5.<.<.5.<.5.<.<.,.<.<.,.,.%.R                                         ",
"                                            ` -.,.,.,.<.<.,.,.<.,.,.,.<.,.,.,.%.'                                               ",
"                                                  W ` | -.;.:.,.:.;.%. .` W                                                     ",
"                                                                                                                                ",
"                                                                                                                                ",
"                                                                                                                                ",
"                                                                                                                                "
};
