/* XPM */
static char *_878b809a91b4413a568b20fecf384db0GiYiLZ3RRJaawE5[] = {
/* columns rows colors chars-per-pixel */
"16 16 98 2 ",
"   c None",
".  c #9C5949",
"X  c #975F52",
"o  c #95867F",
"O  c #339A9A",
"+  c #00A2AA",
"@  c #00B3B1",
"#  c #00B0B5",
"$  c #00B0B7",
"%  c #00BEBA",
"&  c #3CABA5",
"*  c #53AFA1",
"=  c #50AEB2",
"-  c #5FAEB1",
";  c #48B8BE",
":  c #00B7C1",
">  c #00BAC1",
",  c #00BEC8",
"<  c #00B1DF",
"1  c #00B5DD",
"2  c #00BFDD",
"3  c #00B3E1",
"4  c #00C3CD",
"5  c #00CCCD",
"6  c #00CED9",
"7  c #2DC6C9",
"8  c #00D8E5",
"9  c #00D8E6",
"0  c #00DAE6",
"q  c #00D6E9",
"w  c #00D6EA",
"e  c #00D6EB",
"r  c #00D8EA",
"t  c #00DAED",
"y  c #00C4F4",
"u  c #00C4F5",
"i  c #00C6F7",
"p  c #00CFF2",
"a  c #00CBFE",
"s  c #00CCFE",
"d  c #00CCFF",
"f  c #00CDFF",
"g  c #00D2F4",
"h  c #00D3F4",
"j  c #00DAF3",
"k  c #00DEF1",
"l  c #00DAF4",
"z  c #00DEF4",
"x  c #00D1FE",
"c  c #00D3FF",
"v  c #00D8FC",
"b  c #00DBFF",
"n  c #00DCFF",
"m  c #00DDFF",
"M  c #00DEFF",
"N  c #00E3E7",
"B  c #00E6F3",
"V  c #00E8F3",
"C  c #00E1FC",
"Z  c #00E2FC",
"A  c #00E3FE",
"S  c #00E4FE",
"D  c #00E5FF",
"F  c #00E6FF",
"G  c #00E7FF",
"H  c #00E8FF",
"J  c #00E9FF",
"K  c #00EAFF",
"L  c #00EBFF",
"P  c #00EDFF",
"I  c #00EEFF",
"U  c #00EFFF",
"Y  c #00F0FF",
"T  c #00F2FF",
"R  c #00F3FF",
"E  c #00F4FF",
"W  c #00F5FF",
"Q  c #00F6FF",
"!  c #00F7FF",
"~  c #00F8FF",
"^  c #00F9FF",
"/  c #00FAFF",
"(  c #00FCFF",
")  c #999B88",
"_  c #9EA299",
"`  c #97AC9B",
"'  c #A1B399",
"]  c #8ABCAB",
"[  c #B6BAB8",
"{  c #FBDBB0",
"}  c #FCDFB9",
"|  c #8FC6C6",
" . c #88CCCC",
".. c #D4CECC",
"X. c #DADBDA",
"o. c #E3E6E5",
"O. c #F4F4F4",
"+. c #F8F8F8",
/* pixels */
"                                ",
"          2 l Z F h 1           ",
"        , - K K K K F v         ",
"      F ; [ R I I I K F n       ",
"    Z = 4 # R W R R I K F x     ",
"  2 K 6 B W W W W R I I K n 3   ",
"  j K 9 O W / / W W R I K F u   ",
"  Z K 9 V W / ( / / R R K F f   ",
"  Z K # X o  .5 N R R I K F f   ",
"  h K + . ..O.+.o._ ] % k n u   ",
"  1 F K : > 7 | X.` { } ) x 3   ",
"    v F K I I R 8 @ * ' & f     ",
"      v K z t e e r e p f       ",
"        x n F F F n x a         ",
"          3 u f f y <           ",
"                                "
};
