/* XPM */
static char *a1ed8204c37a478eb3ebef56f7ae42c4MqJ0I3MfsZsqwzOa[] = {
/* columns rows colors chars-per-pixel */
"32 32 237 2 ",
"   c None",
".  c #7F4D3F",
"X  c #337575",
"o  c #6B5048",
"O  c #6B5148",
"+  c #765C53",
"@  c #4F6966",
"#  c #516E66",
"$  c #556C6B",
"%  c #6C6E64",
"&  c #64756A",
"*  c #C0523C",
"=  c #E3593D",
"-  c #885448",
";  c #CB5640",
":  c #47857D",
">  c #5D8279",
",  c #738677",
"<  c #73897C",
"1  c #7E8B79",
"2  c #948676",
"3  c #908A79",
"4  c #008383",
"5  c #008E8F",
"6  c #008E90",
"7  c #009191",
"8  c #009092",
"9  c #009297",
"0  c #009498",
"q  c #00949A",
"w  c #00979C",
"e  c #00999C",
"r  c #3E898B",
"t  c #329591",
"y  c #329792",
"u  c #0097A0",
"i  c #0098A0",
"p  c #009BA0",
"a  c #009DA4",
"s  c #00A1A7",
"d  c #00A3A6",
"f  c #00ABAB",
"g  c #00ACB2",
"h  c #00ABB7",
"j  c #00ACB5",
"k  c #00A0B8",
"l  c #00B3B4",
"z  c #00B1BC",
"x  c #00B1BD",
"c  c #438482",
"v  c #428C8F",
"b  c #478E8E",
"n  c #4D8C8D",
"m  c #598080",
"M  c #538E8D",
"N  c #568F8E",
"B  c #5C8C8C",
"V  c #5F918F",
"C  c #658684",
"Z  c #728E8D",
"A  c #6A9190",
"S  c #779695",
"D  c #7D9695",
"F  c #00B9C3",
"G  c #00BAC3",
"H  c #00B9C7",
"J  c #00BAC8",
"K  c #00BEC9",
"L  c #00ABD6",
"P  c #00ACD6",
"I  c #00AED6",
"U  c #00B6E4",
"Y  c #00B7E4",
"T  c #00B7E5",
"R  c #00B9E4",
"E  c #00BCEC",
"W  c #00BDEC",
"Q  c #00BEED",
"!  c #00C0C8",
"~  c #00C0CB",
"^  c #00C0CE",
"/  c #00CDD6",
"(  c #00D6DB",
")  c #00CEE4",
"_  c #00CFE4",
"`  c #00CFE6",
"'  c #00C1E9",
"]  c #00C3EC",
"[  c #00C3ED",
"{  c #00C1EF",
"}  c #00C9E9",
"|  c #00D2E3",
" . c #00D0E4",
".. c #00D1E4",
"X. c #00D2E5",
"o. c #00D3E5",
"O. c #00D4E7",
"+. c #00DEE3",
"@. c #00D7EB",
"#. c #00DAE8",
"$. c #00DBEE",
"%. c #00C3F5",
"&. c #00C4F5",
"*. c #00C7F5",
"=. c #00C9F5",
"-. c #00C6F8",
";. c #00C7F8",
":. c #00C8F9",
">. c #00CBF9",
",. c #00CCF9",
"<. c #00CEF8",
"1. c #00CFF8",
"2. c #00CBFE",
"3. c #00CCFE",
"4. c #00CCFF",
"5. c #00CDFF",
"6. c #00CEFF",
"7. c #00CFFF",
"8. c #00D0F6",
"9. c #00D5F4",
"0. c #00DAF0",
"q. c #00DAF1",
"w. c #00DBF1",
"e. c #00DCF1",
"r. c #00DCF2",
"t. c #00DEF4",
"y. c #00DEF5",
"u. c #00DFF7",
"i. c #00D0FF",
"p. c #00D1FF",
"a. c #00D2FF",
"s. c #00D3FF",
"d. c #00D5FE",
"f. c #00D4FF",
"g. c #00D6FF",
"h. c #00D7FF",
"j. c #00D8FF",
"k. c #00D9FF",
"l. c #00DBFF",
"z. c #00DCFF",
"x. c #00DDFF",
"c. c #00DEFF",
"v. c #00DFFF",
"b. c #00E3F0",
"n. c #00E4F3",
"m. c #00E7F2",
"M. c #00E1F5",
"N. c #00E7F7",
"B. c #00E2FB",
"V. c #00E7F8",
"C. c #00E0FF",
"Z. c #00E3FE",
"A. c #00E2FF",
"S. c #00E3FF",
"D. c #00E5FF",
"F. c #00E7FE",
"G. c #00E6FF",
"H. c #00E7FF",
"J. c #00ECFB",
"K. c #00E9FC",
"L. c #00E9FD",
"P. c #00EAFC",
"I. c #00E8FF",
"U. c #00E9FF",
"Y. c #00EAFE",
"T. c #00EBFE",
"R. c #00EAFF",
"E. c #00EBFF",
"W. c #00ECFE",
"Q. c #00ECFF",
"!. c #00EDFF",
"~. c #00EEFE",
"^. c #00EEFF",
"/. c #00EFFF",
"(. c #00F0FF",
"). c #00F1FF",
"_. c #00F2FF",
"`. c #00F3FF",
"'. c #00F4FD",
"]. c #00F4FF",
"[. c #00F5FF",
"{. c #00F6FF",
"}. c #00F7FF",
"|. c #00F8FF",
" X c #00F9FF",
".X c #00FAFF",
"XX c #00FBFF",
"oX c #00FCFF",
"OX c #8E8E88",
"+X c #998885",
"@X c #988A87",
"#X c #978E8A",
"$X c #908D8C",
"%X c #859390",
"&X c #8B9592",
"*X c #829C9B",
"=X c #8E9F9E",
"-X c #BCAB93",
";X c #B1B1AE",
":X c #B8B8B6",
">X c #BDBDBC",
",X c #C5AC89",
"<X c #D1B38F",
"1X c #C3B199",
"2X c #D1B795",
"3X c #BDC1BF",
"4X c #F0CDA1",
"5X c #F6D3A4",
"6X c #FAD6A7",
"7X c #FAD7A8",
"8X c #FBDAAE",
"9X c #EFD8BA",
"0X c #F7DAB3",
"qX c #FDDEB8",
"wX c #FDE2BF",
"eX c #BDC1C0",
"rX c #C7C5C4",
"tX c #CCCDCD",
"yX c #D9D8D8",
"uX c #DCDBDB",
"iX c #DEDDDD",
"pX c #DEDEDD",
"aX c #FEE6C5",
"sX c #E4E3E3",
"dX c #E6E6E5",
"fX c #E6E6E6",
"gX c gray92",
"hX c gray94",
"jX c #F1F1F1",
"kX c gray95",
"lX c gray96",
"zX c #F8F8F8",
"xX c #F9F9F9",
"cX c gray99",
"vX c #FDFDFD",
"bX c #FEFEFD",
"nX c white",
/* pixels */
"                                                                ",
"                        L Q -.2.5.5.*.Q L                       ",
"                    Q p.p.d.l.l.l.d.p.p.5.5.Q                   ",
"                U p.l.x.A.G.G.G.A.G.G.x.l.d.5.5.U               ",
"              *.l.x.G.G.I.I.I.I.I.G.I.I.G.A.l.5.5.%.            ",
"            ,.l.A.u v i I.I.~.I.~.I.I.I.I.G.G.x.p.5.:.          ",
"          =.x.G.h eXhXeXj ~.~.~.~.~.~.I.I.I.I.G.x.d.5.*.        ",
"        R x.G.I.q sXhXiXa ~.~.).~.~.~.~.~.I.I.I.G.l.p.5.U       ",
"        d.G.G.I.o.m tXyXd ).).).).).).~.~.~.~.I.I.G.l.5.5.      ",
"      [ A.I.H n p V.6 C ! ).).).).).).).~.).I.I.I.G.A.p.5.Q     ",
"      l.G.G.r hXD n.).).].].].].].].].).).~.~.~.I.I.G.l.5.5.    ",
"    P x.I.I.x B 8 ).).].].|.|.].|.].].).).).~.~.~.I.G.x.p.5.P   ",
"    ] A.G.I.I.~.#.).].].].|.|.|.|.|.].].].).).~.~.I.G.A.d.5.Q   ",
"    ,.G.I.I.~.s =Xe ].|.|.|.|.oX|.|.|.|.].).).~.~.I.I.G.d.5.-.  ",
"    d.G.I.~.~.g Z d ].].|.|.oX|.oX|.|.].].].).~.~.I.I.G.l.5.5.  ",
"    l.G.I.~.~.~.J.).].|.|.oXoXoXoXoX|.|.].).).).~.I.G.G.l.5.5.  ",
"    d.G.I.~.~.K G m.].].|.oXoX|.oX|.|.|.].].).~.~.I.I.G.l.5.5.  ",
"    1.G.I.I.I.@ $X. O V l +.|.oX|.|.|.].].).).~.~.I.G.G.d.5.-.  ",
"    ] G.I.I.~.9 @X* - vXiX;X%XV f ( ].].).).).~.~.I.I.G.d.5.Q   ",
"    P x.I.I.$.$ +X= + kXlXxXvXvXdX:X&XA t / ~.~.~.I.I.x.p.5.P   ",
"      l.G.G.I.X O * #XkXhXhXhXhXlXzXvXuX2 -X3 < y K B.l.5.5.    ",
"      [ x.G.I.I.x 4 5 V *XrXgXhXhXhXhXOX2XqXwXaX9X1X> p.5.Q     ",
"        l.G.I.I.I.~.~.~.b.H 0 b S >XdX% 5X7X6X7X8X0Xc p.5.      ",
"        R x.I.I.I.I.~.~.~.~.).).N.! e # 1 ,X4X6X6X2Xk 5.U       ",
"          =.x.G.G.I.I.I.~.~.~.I.~.I.V.I.M.J 8 : , & [ %.        ",
"            :.x.G.G.M.@.@.........o......._ ..} ] Q :.          ",
"              =.d.A.G.B.y.y.q.e.$.q.q.q.q.9.1.:.2.*.            ",
"                U p.l.x.A.G.G.G.G.G.A.x.l.p.p.5.U               ",
"                    Q p.p.d.l.d.d.l.p.p.5.5.Q                   ",
"                        P Q -.5.5.5.*.Q L                       ",
"                                                                ",
"                                                                "
};
